# xmcd
# 
# Track frame offsets:
#     150
#     17757
#     37942
#     53807
#     75127
#     89682
#     112995
#     132737
#     147640
#     166792
#     182117
#     197330
# 
# Disc length: 2994
# 
# Revision: 3
# Processed by: cddbd v1.5.2PL0 Copyright (c) Steve Scherf et al.
# Submitted via: BonkEnc v1.0.6
# 
DISCID=980bb00c
DTITLE=Lavelle White - Miss Lavelle
DYEAR=1994
DGENRE=Blues
TTITLE0=Yes, I've been Crying
TTITLE1=Voodoo Man
TTITLE2=Why Young Men Go Wild
TTITLE3=You're Gonna Make Me Cry
TTITLE4=Stop These Teardrops
TTITLE5=Go to the Mirror
TTITLE6=For You, My Love
TTITLE7=Lead Me On
TTITLE8=About the Facts of Life
TTITLE9=Wrappin' Up Our Love
TTITLE10=It's a Miracle
TTITLE11=Tin Pan Alley
EXTD=YEAR: 1994
EXTT0=
EXTT1=
EXTT2=
EXTT3=
EXTT4=
EXTT5=
EXTT6=
EXTT7=
EXTT8=
EXTT9=
EXTT10=
EXTT11=
PLAYORDER=
